<?xml version="1.0" encoding="UTF-8"?>
<svg version="1.1" xmlns="http://www.w3.org/2000/svg" viewBox="0 0 225 225">
<path d="M0 0 C74.25 0 148.5 0 225 0 C225 74.25 225 148.5 225 225 C150.75 225 76.5 225 0 225 C0 150.75 0 76.5 0 0 Z " fill="#FEFDFD" transform="translate(0,0)"/>
<path d="M0 0 C1.06637695 0.00773437 1.06637695 0.00773437 2.15429688 0.015625 C5.28845766 0.06279957 7.82159909 0.25303303 10.8125 1.25 C12.77345049 1.27504407 14.73540378 1.24051806 16.6953125 1.171875 C18.44714844 1.13320312 18.44714844 1.13320312 20.234375 1.09375 C22.68015153 1.03183161 25.12558327 0.95400968 27.5703125 0.859375 C36.85530588 0.69648038 42.40731044 2.38284886 49.37109375 8.49609375 C55.23215847 15.33197173 57.3217389 20.31662061 57.125 29.37890625 C56.20885112 37.79602409 51.73078848 46.29301336 45.09375 51.6328125 C43.70710194 52.56814586 42.2647366 53.42015051 40.8125 54.25 C42.87491834 60.53924274 45.04184932 66.78297827 47.3125 73 C47.60769531 73.82371094 47.90289062 74.64742188 48.20703125 75.49609375 C50.4106595 81.6816948 50.4106595 81.6816948 53.8125 87.25 C55.81838475 88.25934681 55.81838475 88.25934681 58 88.5625 C59.258125 88.789375 60.51625 89.01625 61.8125 89.25 C61.8125 87.6 61.8125 85.95 61.8125 84.25 C63.7925 85.24 63.7925 85.24 65.8125 86.25 C65.5 88.125 65.5 88.125 64.8125 90.25 C61.05420169 92.75553221 58.15649822 93.09320243 53.8125 92.25 C47.07436097 89.20045954 43.01025215 84.8413829 39.8125 78.25 C38.61627188 74.63124946 37.78400689 70.97724589 37 67.25 C36.78408203 66.28449219 36.56816406 65.31898438 36.34570312 64.32421875 C35.82097784 61.96878527 35.31029482 59.61124411 34.8125 57.25 C33.78189453 57.30220703 33.78189453 57.30220703 32.73046875 57.35546875 C31.82941406 57.38253906 30.92835938 57.40960938 30 57.4375 C28.66001953 57.48970703 28.66001953 57.48970703 27.29296875 57.54296875 C24.8125 57.25 24.8125 57.25 23.0078125 55.8984375 C21.33301565 53.58875035 21.45558325 52.03395062 21.8125 49.25 C24.21700178 46.84549822 24.89483942 46.95390861 28.1875 46.9375 C31.32791545 46.99312733 32.60895416 47.13085122 35.375 48.75 C35.849375 49.245 36.32375 49.74 36.8125 50.25 C41.28103055 48.76048982 43.59309523 45.20567381 45.8125 41.25 C48.65833524 34.12053821 49.35206571 25.87530471 46.90234375 18.515625 C43.88345702 12.73023435 40.09253518 8.77559776 34.125 6 C29.39302347 4.92860909 24.6465351 4.57685647 19.8125 4.25 C19.8125 4.91 19.8125 5.57 19.8125 6.25 C20.51375 6.415 21.215 6.58 21.9375 6.75 C26.16417182 8.95522008 28.55100061 12.08884111 30.8125 16.25 C31.42777548 20.28347261 31.14402226 22.42991861 29.625 26.1875 C27.8125 28.25 27.8125 28.25 25.25 28.6875 C22.8125 28.25 22.8125 28.25 20.8125 26.25 C20.6875 23.125 20.6875 23.125 20.8125 20.25 C21.4725 20.58 22.1325 20.91 22.8125 21.25 C22.8125 21.91 22.8125 22.57 22.8125 23.25 C23.8025 22.92 24.7925 22.59 25.8125 22.25 C26.23081404 18.96000718 26.23081404 18.96000718 25.8125 15.25 C23.45831624 12.31026719 23.45831624 12.31026719 20.8125 10.25 C19.57058796 18.94833951 19.64853592 27.62923196 19.64453125 36.39453125 C19.64131329 38.05360441 19.63794881 39.71267729 19.63444519 41.37174988 C19.62848623 44.83206847 19.62660225 48.29236219 19.62719727 51.75268555 C19.62729939 56.18566467 19.61358081 60.61848544 19.59642506 65.05142689 C19.58531591 68.47005448 19.58327762 71.88864342 19.58380699 75.30728722 C19.5826278 76.94235473 19.57820942 78.57742327 19.57047462 80.21247292 C19.56068471 82.49308148 19.5635473 84.77334098 19.56958008 87.05395508 C19.56815506 88.35029373 19.56673004 89.64663239 19.56526184 90.98225403 C19.62447348 94.50471264 19.62447348 94.50471264 21.8125 98.25 C16.8625 98.25 11.9125 98.25 6.8125 98.25 C7.3075 96.27 7.3075 96.27 7.8125 94.25 C8.4725 94.25 9.1325 94.25 9.8125 94.25 C9.4825 67.19 9.1525 40.13 8.8125 12.25 C7.4925 11.92 6.1725 11.59 4.8125 11.25 C4.1525 14.88 3.4925 18.51 2.8125 22.25 C4.1325 22.25 5.4525 22.25 6.8125 22.25 C7.3075 20.765 7.3075 20.765 7.8125 19.25 C8.8125 20.25 8.8125 20.25 9 22.6875 C8.8125 25.25 8.8125 25.25 6.8125 27.25 C3.8125 27.5625 3.8125 27.5625 0.8125 27.25 C-1.66358302 23.53587547 -1.84240912 20.55602748 -1.1875 16.25 C1.28510928 11.39988179 4.58413241 8.51737495 8.8125 5.25 C-1.96645237 4.51477315 -1.96645237 4.51477315 -11.1875 9.25 C-16.78854557 15.37207307 -19.71640389 21.3634264 -19.50390625 29.75 C-18.53663251 37.39265673 -15.52243031 43.76687718 -10.1875 49.25 C-6.93766865 48.16215032 -6.93766865 48.16215032 -4.1875 46.25 C2.04779412 45.77941176 2.04779412 45.77941176 5.25 47.75 C5.765625 48.245 6.28125 48.74 6.8125 49.25 C6.5 52.125 6.5 52.125 5.8125 55.25 C2.13134463 57.70410358 0.15956402 57.48287843 -4.1875 57.25 C-5.1775 56.92 -6.1675 56.59 -7.1875 56.25 C-7.29707031 57.00023437 -7.40664062 57.75046875 -7.51953125 58.5234375 C-10.87007411 80.1521451 -10.87007411 80.1521451 -19.8046875 87.59765625 C-24.58679859 90.9165841 -28.43464798 91.5581885 -34.1875 91.25 C-35.1775 90.59 -36.1675 89.93 -37.1875 89.25 C-37.375 86.625 -37.375 86.625 -37.1875 84.25 C-35.7025 83.755 -35.7025 83.755 -34.1875 83.25 C-33.8575 84.57 -33.5275 85.89 -33.1875 87.25 C-29.8240731 87.22350778 -29.8240731 87.22350778 -26.1875 86.25 C-20.71495945 79.99566794 -18.20908401 71.55928 -15.98046875 63.69140625 C-14.77455209 59.97860865 -13.03221686 56.68499001 -11.1875 53.25 C-11.868125 53.085 -12.54875 52.92 -13.25 52.75 C-19.83444869 49.38772833 -24.08486979 43.01995326 -26.5234375 36.16015625 C-28.16678357 28.95843379 -28.98999925 20.37537157 -25.1875 13.75 C-18.61376409 5.20228106 -11.02027623 -0.32502197 0 0 Z " fill="#EA1E88" transform="translate(97.1875,69.75)"/>
<path d="M0 0 C1.32 0.33 2.64 0.66 4 1 C4 1.66 4 2.32 4 3 C10.27 3 16.54 3 23 3 C23.33 2.01 23.66 1.02 24 0 C24.556875 0.144375 25.11375 0.28875 25.6875 0.4375 C28.04945411 1.04352665 28.04945411 1.04352665 30.6875 1.4375 C31.450625 1.623125 32.21375 1.80875 33 2 C33.495 2.99 33.495 2.99 34 4 C35.32 4 36.64 4 38 4 C38.495 4.99 38.495 4.99 39 6 C39.99 6.2475 39.99 6.2475 41 6.5 C41.99 6.7475 41.99 6.7475 43 7 C43.495 7.99 43.495 7.99 44 9 C44.99 9 45.98 9 47 9 C47.103125 9.639375 47.20625 10.27875 47.3125 10.9375 C47.539375 11.618125 47.76625 12.29875 48 13 C48.99 13.33 49.98 13.66 51 14 C51 14.99 51 15.98 51 17 C52.485 17.495 52.485 17.495 54 18 C53.505 20.475 53.505 20.475 53 23 C54.98 23.495 54.98 23.495 57 24 C56.7215625 24.86625 56.7215625 24.86625 56.4375 25.75 C55.95817621 28.21509379 56.34273163 29.61740218 57 32 C55.44813125 33.55186875 54.03894372 33.50718123 51.875 33.75 C45.32913861 33.75 41.39142415 30.08841533 36.48901367 26.20751953 C32.35416856 22.93535515 28.55134772 20.71369117 23.6015625 18.83203125 C22 18 22 18 20.5625 15.3125 C20.376875 14.549375 20.19125 13.78625 20 13 C19.34 12.67 18.68 12.34 18 12 C18 14.97 18 17.94 18 21 C15.36 21 12.72 21 10 21 C9.505 16.545 9.505 16.545 9 12 C8.34 12.33 7.68 12.66 7 13 C6.90332031 13.80050781 6.80664062 14.60101563 6.70703125 15.42578125 C6.47371094 16.27527344 6.24039063 17.12476562 6 18 C3.69921875 19.23046875 3.69921875 19.23046875 0.6875 20.1875 C-4.64074133 22.146877 -8.05189696 24.52117142 -12.125 28.3125 C-16.06299242 31.81928745 -18.39752595 33.66269348 -23.75 33.625 C-26.234375 33.3515625 -26.234375 33.3515625 -28 33 C-28.77842938 29.59437148 -29.09978121 26.49234244 -29 23 C-28.01 23 -27.02 23 -26 23 C-26.33 21.35 -26.66 19.7 -27 18 C-26.01 17.67 -25.02 17.34 -24 17 C-23.26676204 14.98491642 -23.26676204 14.98491642 -23 13 C-22.01 13 -21.02 13 -20 13 C-19.67 11.68 -19.34 10.36 -19 9 C-18.01 9 -17.02 9 -16 9 C-15.67 8.01 -15.34 7.02 -15 6 C-14.01 6 -13.02 6 -12 6 C-11.34 5.01 -10.68 4.02 -10 3 C-8.68 3.33 -7.36 3.66 -6 4 C-6 3.34 -6 2.68 -6 2 C-3.03 2.495 -3.03 2.495 0 3 C0 2.01 0 1.02 0 0 Z " fill="#EA1B86" transform="translate(98,18)"/>
<path d="M0 0 C0.99 0 1.98 0 3 0 C3.28875 0.94875 3.5775 1.8975 3.875 2.875 C4.76825109 6.05211578 4.76825109 6.05211578 7 8 C10.84458427 8.21358801 14.31620978 8.17881287 18 7 C18.33 5.35 18.66 3.7 19 2 C19.99 2.33 20.98 2.66 22 3 C21.9071875 4.60875 21.9071875 4.60875 21.8125 6.25 C21.79709375 9.85064935 21.79709375 9.85064935 22.9375 12.4375 C26.28106957 14.97050725 29.95279637 14.30544933 34 14 C34.33 13.01 34.66 12.02 35 11 C35.99 11 36.98 11 38 11 C37.56751887 13.9192476 36.94839341 15.05786193 34.9375 17.3125 C32.47723954 20.72511935 32.67740635 22.88693102 33 27 C29.60461942 26.37493272 26.40480569 25.50776599 23.1171875 24.46484375 C16.13183276 22.54474875 9.33019762 22.52259206 2.125 22.5625 C0.21654297 22.5325293 0.21654297 22.5325293 -1.73046875 22.50195312 C-9.49529406 22.50591882 -15.97958514 23.51471184 -23.29736328 26.14038086 C-26 27 -26 27 -30 27 C-29.93489583 25.01432292 -29.86979167 23.02864583 -29.8046875 21.04296875 C-29.86745538 18.68640281 -29.86745538 18.68640281 -32 16 C-32.99 15.67 -33.98 15.34 -35 15 C-35 13.68 -35 12.36 -35 11 C-33.125 11.3125 -33.125 11.3125 -31 12 C-30.01 13.485 -30.01 13.485 -29 15 C-25.02358441 15.70691833 -23.45979138 15.31985487 -20.125 13 C-17.27011416 8.96957293 -17.58959681 6.84275759 -18 2 C-17.01 2 -16.02 2 -15 2 C-14.71125 2.804375 -14.4225 3.60875 -14.125 4.4375 C-13.26737432 7.1326468 -13.26737432 7.1326468 -11 8 C-5.94558301 8.48582611 -5.94558301 8.48582611 -1.5625 6.25 C0.38026387 3.90897434 0.38026387 3.90897434 0 0 Z " fill="#EA1D87" transform="translate(110,42)"/>
<path d="M0 0 C4.61998938 2.72999372 7.4930456 5.08251252 10 10 C10.48082989 13.91532908 10.28921691 16.28456871 8.8125 19.9375 C7 22 7 22 4.4375 22.4375 C2 22 2 22 0 20 C-0.125 16.875 -0.125 16.875 0 14 C0.66 14.33 1.32 14.66 2 15 C2 15.66 2 16.32 2 17 C2.99 16.67 3.98 16.34 5 16 C5.41831404 12.71000718 5.41831404 12.71000718 5 9 C2.64581624 6.06026719 2.64581624 6.06026719 0 4 C-1.24191204 12.69833951 -1.16396408 21.37923196 -1.16796875 30.14453125 C-1.17118671 31.80360441 -1.17455119 33.46267729 -1.17805481 35.12174988 C-1.18401377 38.58206847 -1.18589775 42.04236219 -1.18530273 45.50268555 C-1.18520061 49.93566467 -1.19891919 54.36848544 -1.21607494 58.80142689 C-1.22718409 62.22005448 -1.22922238 65.63864342 -1.22869301 69.05728722 C-1.2298722 70.69235473 -1.23429058 72.32742327 -1.24202538 73.96247292 C-1.25181529 76.24308148 -1.2489527 78.52334098 -1.24291992 80.80395508 C-1.24434494 82.10029373 -1.24576996 83.39663239 -1.24723816 84.73225403 C-1.18802652 88.25471264 -1.18802652 88.25471264 1 92 C-3.95 92 -8.9 92 -14 92 C-13.67 90.68 -13.34 89.36 -13 88 C-12.01 87.505 -12.01 87.505 -11 87 C-10.67 60.93 -10.34 34.86 -10 8 C-7 7 -4 6 -1 5 C-0.67 3.35 -0.34 1.7 0 0 Z " fill="#EA2089" transform="translate(118,76)"/>
<path d="M0 0 C2.4178712 -0.10826289 4.83087556 -0.18739789 7.25 -0.25 C8.27287109 -0.30027344 8.27287109 -0.30027344 9.31640625 -0.3515625 C12.7696604 -0.41861598 14.65819825 -0.24644013 17.4921875 1.796875 C19 4 19 4 18.875 7.5 C18.15756875 10.36972501 17.3634349 12.430883 16 15 C17.12327771 16.45966034 18.24868294 17.91768364 19.375 19.375 C20.00148438 20.18710938 20.62796875 20.99921875 21.2734375 21.8359375 C22.96773494 24.04223195 22.96773494 24.04223195 25 26 C22.2578125 26.30859375 22.2578125 26.30859375 19 26 C16.8046875 23.84765625 16.8046875 23.84765625 14.875 21.0625 C11.95452069 16.68828932 11.95452069 16.68828932 7 15 C7.33 18.63 7.66 22.26 8 26 C6.35 26 4.7 26 3 26 C3 17.75 3 9.5 3 1 C2.01 0.67 1.02 0.34 0 0 Z " fill="#EA238B" transform="translate(41,198)"/>
<path d="M0 0 C0.66 0.33 1.32 0.66 2 1 C2 1.66 2 2.32 2 3 C4.31 3.33 6.62 3.66 9 4 C9.33 5.32 9.66 6.64 10 8 C6.59353476 11.0279691 5.9819505 11 1 11 C1 37.07 1 63.14 1 90 C0.67 90 0.34 90 0 90 C-0.33 63.27 -0.66 36.54 -1 9 C-2.32 8.67 -3.64 8.34 -5 8 C-5.66 11.63 -6.32 15.26 -7 19 C-5.68 19 -4.36 19 -3 19 C-2.67 18.01 -2.34 17.02 -2 16 C-1 17 -1 17 -0.8125 19.4375 C-1 22 -1 22 -3 24 C-6 24.3125 -6 24.3125 -9 24 C-11.47608302 20.28587547 -11.65490912 17.30602748 -11 13 C-8.51235467 8.120388 -5.18733924 5.34987139 -1 2 C-0.67 1.34 -0.34 0.68 0 0 Z " fill="#EE54A1" transform="translate(107,73)"/>
<path d="M0 0 C3.21987821 1.1814382 5.30484637 2.86554789 7.125 5.8359375 C8.7297463 9.80481896 8.52400798 13.80130313 8 18 C6.12253811 22.13041615 4.67326733 23.61157654 0.75 25.875 C-4.85258475 27.55577543 -8.86017151 28.04972719 -14.3125 25.375 C-18.53703792 21.64168742 -20.13668025 18.1265447 -20.5625 12.5625 C-20.42944322 7.93682019 -18.63971148 5.58056851 -15.5078125 2.3125 C-11.25308551 -1.39109655 -5.30953718 -0.50600028 0 0 Z M-12.9375 2.8125 C-15.9574419 7.47968293 -15.73794683 11.58838992 -15 17 C-13.46696367 21.1610986 -12.69096643 22.53935571 -9 25 C-4.94138697 25.46216947 -4.94138697 25.46216947 -1 25 C2.24269954 21.84044661 3.89640964 19.32077713 4.25 14.8125 C3.9182556 9.75339785 2.68598694 5.86662839 -0.75 2.0625 C-5.29191914 -0.08229515 -8.70433561 0.2005475 -12.9375 2.8125 Z " fill="#EA258C" transform="translate(87,198)"/>
<path d="M0 0 C1.093125 0.00257812 2.18625 0.00515625 3.3125 0.0078125 C4.405625 0.00523438 5.49875 0.00265625 6.625 0 C9.3125 0.1328125 9.3125 0.1328125 10.3125 1.1328125 C10.38494053 3.15245449 10.39627188 5.17448374 10.375 7.1953125 C10.36597656 8.30003906 10.35695313 9.40476562 10.34765625 10.54296875 C10.33605469 11.39761719 10.32445313 12.25226562 10.3125 13.1328125 C8.3325 14.1228125 8.3325 14.1228125 6.3125 15.1328125 C6.3125 16.4528125 6.3125 17.7728125 6.3125 19.1328125 C4.3325 19.1328125 2.3525 19.1328125 0.3125 19.1328125 C0.3125 17.4828125 0.3125 15.8328125 0.3125 14.1328125 C-1.0075 13.8028125 -2.3275 13.4728125 -3.6875 13.1328125 C-3.71436553 11.15371852 -3.73383375 9.17452279 -3.75 7.1953125 C-3.76160156 6.09316406 -3.77320312 4.99101562 -3.78515625 3.85546875 C-3.6544871 0.2124129 -3.6349586 0.17963458 0 0 Z " fill="#EA1E8B" transform="translate(108.6875,-0.1328125)"/>
<path d="M0 0 C3 1 3 1 4.15087891 3.08544922 C4.50585449 3.98279785 4.86083008 4.88014648 5.2265625 5.8046875 C5.6184375 6.78050781 6.0103125 7.75632813 6.4140625 8.76171875 C6.81367188 9.78910156 7.21328125 10.81648437 7.625 11.875 C8.03234375 12.89464844 8.4396875 13.91429687 8.859375 14.96484375 C10.31499379 18.62317045 11.7547624 22.2642872 13 26 C11.35 26 9.7 26 8 26 C7.01 23.03 6.02 20.06 5 17 C2.03 17 -0.94 17 -4 17 C-4.66 19.97 -5.32 22.94 -6 26 C-7.32 25.67 -8.64 25.34 -10 25 C-6.7 16.75 -3.4 8.5 0 0 Z " fill="#EB268D" transform="translate(131,198)"/>
<path d="M0 0 C1.258125 -0.04125 2.51625 -0.0825 3.8125 -0.125 C4.52019531 -0.14820313 5.22789063 -0.17140625 5.95703125 -0.1953125 C8 0 8 0 11 2 C10.67 4.64 10.34 7.28 10 10 C11.32 10.99 12.64 11.98 14 13 C15.65 8.71 17.3 4.42 19 0 C19.66 0 20.32 0 21 0 C21.34933594 0.91523438 21.69867188 1.83046875 22.05859375 2.7734375 C22.74115234 4.55621094 22.74115234 4.55621094 23.4375 6.375 C24.11619141 8.15003906 24.11619141 8.15003906 24.80859375 9.9609375 C25.89271912 12.86036193 25.89271912 12.86036193 27 15 C25.68 15 24.36 15 23 15 C22.67 13.35 22.34 11.7 22 10 C20.35 10 18.7 10 17 10 C16.67 11.65 16.34 13.3 16 15 C13.75 15.3125 13.75 15.3125 11 15 C8.875 12.5625 8.875 12.5625 7 10 C6.01 9.67 5.02 9.34 4 9 C4.33 10.98 4.66 12.96 5 15 C3.68 14.67 2.36 14.34 1 14 C1.33 9.71 1.66 5.42 2 1 C1.34 0.67 0.68 0.34 0 0 Z " fill="#F06FB0" transform="translate(50,174)"/>
<path d="M0 0 C2.97 0 5.94 0 9 0 C9.103125 0.721875 9.20625 1.44375 9.3125 2.1875 C10.06029278 5.24665229 11.34777805 7.34207773 13 10 C13 10.66 13 11.32 13 12 C15.62408366 9.62582907 17.38613402 7.15088121 19 4 C19 2.68 19 1.36 19 0 C21.64 0 24.28 0 27 0 C25.9171875 0.99 25.9171875 0.99 24.8125 2 C17.60654708 9.39072094 16.17275661 15.69742418 16 26 C14.35 26 12.7 26 11 26 C11.00902344 25.26136719 11.01804687 24.52273437 11.02734375 23.76171875 C10.73436115 13.73661839 7.04164535 7.04164535 0 0 Z " fill="#EC3994" transform="translate(96,198)"/>
<path d="M0 0 C-0.33 1.32 -0.66 2.64 -1 4 C-1.66 3.34 -2.32 2.68 -3 2 C-5.60280568 2.32041397 -5.60280568 2.32041397 -8 3 C-7.91548357 5.87355849 -7.45477932 7.54298589 -5.41015625 9.59765625 C-4.1552403 10.6421364 -2.88324699 11.66649466 -1.59375 12.66796875 C0.94042888 14.7859957 1.00377563 16.03398065 1.375 19.375 C1 23 1 23 -1 25.4375 C-5.02562956 27.53418206 -7.49875984 27.37510335 -12 27 C-13 26 -13 26 -13.0625 23.4375 C-13.041875 22.633125 -13.02125 21.82875 -13 21 C-12.62875 21.495 -12.2575 21.99 -11.875 22.5 C-9.25305607 24.59755514 -7.26157528 24.21743835 -4 24 C-3.41223366 21.2553656 -3.41223366 21.2553656 -4 18 C-5.62486316 16.22160647 -7.34514646 14.83479801 -9.2734375 13.39453125 C-11.72316212 11.41590752 -12.89492958 9.68295775 -13.375 6.5625 C-13 4 -13 4 -11.5625 1.6875 C-7.80766223 -0.78519805 -4.37248747 -0.33634519 0 0 Z " fill="#EA248C" transform="translate(183,198)"/>
<path d="M0 0 C0.33 0 0.66 0 1 0 C1 8.25 1 16.5 1 25 C2.32 24.67 3.64 24.34 5 24 C5 20.7 5 17.4 5 14 C8.23282475 14.30290521 9.60634978 14.53204278 11.73828125 17.06640625 C12.25777344 17.89011719 12.77726562 18.71382812 13.3125 19.5625 C15.63730655 22.9601399 15.63730655 22.9601399 19.2265625 24.59375 C21.674529 24.61148098 21.674529 24.61148098 25 24 C25 24.66 25 25.32 25 26 C16.09 26 7.18 26 -2 26 C-2 25.34 -2 24.68 -2 24 C-1.34 24 -0.68 24 0 24 C0 16.08 0 8.16 0 0 Z " fill="#FBE0EE" transform="translate(43,199)"/>
<path d="M0 0 C2.97 0 5.94 0 9 0 C9.99 2.97 10.98 5.94 12 9 C14.64 8.67 17.28 8.34 20 8 C20 8.66 20 9.32 20 10 C10.43 10 0.86 10 -9 10 C-9 9.34 -9 8.68 -9 8 C-6.69 8.33 -4.38 8.66 -2 9 C-1.855625 7.88625 -1.71125 6.7725 -1.5625 5.625 C-1 2 -1 2 0 0 Z " fill="#FCE4EF" transform="translate(127,215)"/>
<path d="M0 0 C3.3 0 6.6 0 10 0 C9.34 0.66 8.68 1.32 8 2 C7.72258755 4.23035297 7.72258755 4.23035297 7.8046875 6.7890625 C7.81113281 7.73007813 7.81757813 8.67109375 7.82421875 9.640625 C7.84097656 10.62546875 7.85773438 11.6103125 7.875 12.625 C7.88402344 13.61757812 7.89304688 14.61015625 7.90234375 15.6328125 C7.92595884 18.08878134 7.95889201 20.54427168 8 23 C12.0100934 23.17864631 12.0100934 23.17864631 16 23 C16.66 22.34 17.32 21.68 18 21 C18 22.65 18 24.3 18 26 C12.72 26 7.44 26 2 26 C2.02320313 24.29070312 2.04640625 22.58140625 2.0703125 20.8203125 C2.08906684 18.58854602 2.1072674 16.35677483 2.125 14.125 C2.14175781 12.99707031 2.15851563 11.86914062 2.17578125 10.70703125 C2.18222656 9.63066406 2.18867188 8.55429688 2.1953125 7.4453125 C2.20578613 6.45031738 2.21625977 5.45532227 2.22705078 4.43017578 C2.24379401 1.81828583 2.24379401 1.81828583 0 0 Z " fill="#EA1687" transform="translate(148,198)"/>
<path d="M0 0 C3.78517206 0.25662183 5.01775858 0.68704824 7.6875 3.25 C7.375 6.125 7.375 6.125 6.6875 9.25 C3.0433226 11.6794516 0.97508728 11.41179575 -3.3125 11.25 C-3.6425 10.59 -3.9725 9.93 -4.3125 9.25 C-3.6525 9.25 -2.9925 9.25 -2.3125 9.25 C-2.3125 8.59 -2.3125 7.93 -2.3125 7.25 C-2.9725 7.25 -3.6325 7.25 -4.3125 7.25 C-4.35504356 5.25045254 -4.35330783 3.24958364 -4.3125 1.25 C-3.3125 0.25 -3.3125 0.25 0 0 Z " fill="#EB298F" transform="translate(96.3125,115.75)"/>
<path d="M0 0 C1.32 0 2.64 0 4 0 C4 4.29 4 8.58 4 13 C4.66 13.33 5.32 13.66 6 14 C5.34 14 4.68 14 4 14 C4.33 17.63 4.66 21.26 5 25 C3.35 25 1.7 25 0 25 C0 16.75 0 8.5 0 0 Z " fill="#EA1D88" transform="translate(44,199)"/>
<path d="M0 0 C3.16115776 1.36983503 3.9927092 1.9890638 6 5 C6.07905064 7.33199388 6.08798769 9.66832622 6 12 C4.68 12.33 3.36 12.66 2 13 C1.67 12.34 1.34 11.68 1 11 C0.19347492 13.88167681 -0.17515006 16.56031547 -0.31640625 19.546875 C-0.35830078 20.39121094 -0.40019531 21.23554687 -0.44335938 22.10546875 C-0.48267578 22.97816406 -0.52199219 23.85085937 -0.5625 24.75 C-0.60568359 25.63816406 -0.64886719 26.52632812 -0.69335938 27.44140625 C-0.79913615 29.62745963 -0.90122546 31.81362089 -1 34 C-1.33 34 -1.66 34 -2 34 C-2.04962653 29.96154588 -2.08582632 25.92321113 -2.10986328 21.88452148 C-2.11988926 20.51209417 -2.13351356 19.13968805 -2.15087891 17.76733398 C-2.17527627 15.78899473 -2.18544484 13.81049633 -2.1953125 11.83203125 C-2.20578613 10.64327393 -2.21625977 9.4545166 -2.22705078 8.22973633 C-2.00370033 5.05263614 -1.36116639 2.85656545 0 0 Z " fill="#FCEBF4" transform="translate(118,80)"/>
<path d="M0 0 C1.23556641 0.01740234 1.23556641 0.01740234 2.49609375 0.03515625 C3.32238281 0.04417969 4.14867188 0.05320312 5 0.0625 C5.63808594 0.07410156 6.27617188 0.08570312 6.93359375 0.09765625 C8.19386173 2.6181922 7.8523382 3.95186605 7.49609375 6.72265625 C7.39425781 7.53992187 7.29242188 8.3571875 7.1875 9.19921875 C7.10371094 9.82570313 7.01992187 10.4521875 6.93359375 11.09765625 C4.29359375 11.09765625 1.65359375 11.09765625 -1.06640625 11.09765625 C-1.42750167 9.45332919 -1.78010701 7.80713545 -2.12890625 6.16015625 C-2.32613281 5.24363281 -2.52335937 4.32710937 -2.7265625 3.3828125 C-2.83871094 2.62871094 -2.95085937 1.87460937 -3.06640625 1.09765625 C-2.06640625 0.09765625 -2.06640625 0.09765625 0 0 Z " fill="#EA248B" transform="translate(109.06640625,27.90234375)"/>
<path d="M0 0 C5.07081218 -0.36076925 8.87602359 -0.5619882 13.5 1.75 C16.5910438 4.53193942 17.87876104 6.39964576 18.1953125 10.578125 C18.17210938 11.45984375 18.14890625 12.3415625 18.125 13.25 C18.10695313 14.14203125 18.08890625 15.0340625 18.0703125 15.953125 C18.04710938 16.62859375 18.02390625 17.3040625 18 18 C17.01 18.33 16.02 18.66 15 19 C14.34 19.66 13.68 20.32 13 21 C13.03480469 20.35933594 13.06960937 19.71867187 13.10546875 19.05859375 C13.28924781 13.18641522 12.89772086 9.15150375 10 4 C6.55549263 1.70366176 4.06187717 1.45983515 0 1 C0 0.67 0 0.34 0 0 Z " fill="#E91585" transform="translate(77,198)"/>
<path d="M0 0 C1.65 0 3.3 0 5 0 C5 1.98 5 3.96 5 6 C7.31 6 9.62 6 12 6 C12 4.35 12 2.7 12 1 C12.66 1 13.32 1 14 1 C14.33 5.62 14.66 10.24 15 15 C13.68 14.67 12.36 14.34 11 14 C11.33 12.02 11.66 10.04 12 8 C9.69 8 7.38 8 5 8 C5 10.31 5 12.62 5 15 C3.68 14.67 2.36 14.34 1 14 C1.33 9.71 1.66 5.42 2 1 C1.34 0.67 0.68 0.34 0 0 Z " fill="#EC3C99" transform="translate(124,174)"/>
<path d="M0 0 C5 0 5 0 6.8125 1.0625 C8.646921 4.05550269 8.31107576 6.57816663 8 10 C7.34 10.66 6.68 11.32 6 12 C4.02 12 2.04 12 0 12 C0 8.04 0 4.08 0 0 Z " fill="#FCE8F2" transform="translate(48,200)"/>
<path d="M0 0 C6.52307692 1.47692308 6.52307692 1.47692308 8.9375 4.125 C9.288125 4.74375 9.63875 5.3625 10 6 C9.34 6.66 8.68 7.32 8 8 C8.66 8.66 9.32 9.32 10 10 C8.56344146 10.08131463 7.1255517 10.13933559 5.6875 10.1875 C4.48673828 10.23970703 4.48673828 10.23970703 3.26171875 10.29296875 C1 10 1 10 -0.7734375 8.6484375 C-2.48891217 6.34292696 -2.35928679 4.80243693 -2 2 C-1.34 1.34 -0.68 0.68 0 0 Z " fill="#EA238B" transform="translate(121,117)"/>
<path d="M0 0 C0.66 0.33 1.32 0.66 2 1 C2 4.96 2 8.92 2 13 C0.02 13.99 0.02 13.99 -2 15 C-2 16.32 -2 17.64 -2 19 C-3.98 19 -5.96 19 -8 19 C-8 17.35 -8 15.7 -8 14 C-9.32 13.67 -10.64 13.34 -12 13 C-10.35 11.02 -8.7 9.04 -7 7 C-7 7.99 -7 8.98 -7 10 C-7.66 10.66 -8.32 11.32 -9 12 C-6.03 12 -3.06 12 0 12 C0 9.03 0 6.06 0 3 C-0.99 3.99 -1.98 4.98 -3 6 C-5.6875 6.1875 -5.6875 6.1875 -8 6 C-8.33 5.01 -8.66 4.02 -9 3 C-8.2575 3.2475 -7.515 3.495 -6.75 3.75 C-5.38875 3.87375 -5.38875 3.87375 -4 4 C-1.66545339 2.16641665 -1.66545339 2.16641665 0 0 Z " fill="#F498C4" transform="translate(117,0)"/>
<path d="M0 0 C2.55227651 3.07150755 3.88776704 5.98525624 5.1875 9.75 C5.53167969 10.73484375 5.87585938 11.7196875 6.23046875 12.734375 C6.48441406 13.48203125 6.73835938 14.2296875 7 15 C5.68 15 4.36 15 3 15 C2.67 13.68 2.34 12.36 2 11 C0.35 10.67 -1.3 10.34 -3 10 C-3 11.65 -3 13.3 -3 15 C-4.32 14.67 -5.64 14.34 -7 14 C-6.34 14 -5.68 14 -5 14 C-4.9175 13.360625 -4.835 12.72125 -4.75 12.0625 C-3.70479628 7.79458483 -1.85908174 3.96892333 0 0 Z " fill="#EE54A4" transform="translate(91,174)"/>
<path d="M0 0 C0.66 0 1.32 0 2 0 C2.34933594 0.91523438 2.69867188 1.83046875 3.05859375 2.7734375 C3.51363281 3.96195313 3.96867188 5.15046875 4.4375 6.375 C5.11619141 8.15003906 5.11619141 8.15003906 5.80859375 9.9609375 C6.89271912 12.86036193 6.89271912 12.86036193 8 15 C6.68 15 5.36 15 4 15 C3.67 13.35 3.34 11.7 3 10 C1.35 10 -0.3 10 -2 10 C-2.33 11.65 -2.66 13.3 -3 15 C-3.99 14.67 -4.98 14.34 -6 14 C-5.65066406 13.24074219 -5.30132812 12.48148438 -4.94140625 11.69921875 C-4.25884766 10.20841797 -4.25884766 10.20841797 -3.5625 8.6875 C-3.11003906 7.70136719 -2.65757812 6.71523437 -2.19140625 5.69921875 C-0.94268008 2.98434301 -0.94268008 2.98434301 0 0 Z " fill="#F175B3" transform="translate(147,174)"/>
<path d="M0 0 C1.98 0 3.96 0 6 0 C5.93966291 2.39839917 5.85255482 4.7908385 5.75 7.1875 C5.73582031 7.86103516 5.72164063 8.53457031 5.70703125 9.22851562 C5.47149856 14.05693569 4.35230654 16.54712426 1 20 C0.34 19.67 -0.32 19.34 -1 19 C-0.67 18.67 -0.34 18.34 0 18 C0.08631874 16.65732587 0.10706473 15.31025678 0.09765625 13.96484375 C0.09443359 13.15595703 0.09121094 12.34707031 0.08789062 11.51367188 C0.07532227 10.2384668 0.07532227 10.2384668 0.0625 8.9375 C0.05573242 7.65649414 0.05573242 7.65649414 0.04882812 6.34960938 C0.03700373 4.23304337 0.01906769 2.11651315 0 0 Z " fill="#F275B6" transform="translate(78,174)"/>
<path d="M0 0 C1.258125 -0.04125 2.51625 -0.0825 3.8125 -0.125 C4.52019531 -0.14820313 5.22789063 -0.17140625 5.95703125 -0.1953125 C8 0 8 0 11 2 C10.25 6.75 10.25 6.75 8 9 C5.875 8.625 5.875 8.625 4 8 C3.67 9.98 3.34 11.96 3 14 C3.66 14.33 4.32 14.66 5 15 C3.68 14.67 2.36 14.34 1 14 C1.33 9.71 1.66 5.42 2 1 C1.34 0.67 0.68 0.34 0 0 Z " fill="#EF5FA8" transform="translate(50,174)"/>
<path d="M0 0 C0.66 0 1.32 0 2 0 C2.33 1.98 2.66 3.96 3 6 C4.32 6.33 5.64 6.66 7 7 C7.33 6.01 7.66 5.02 8 4 C9 5 9 5 9.1875 7.4375 C9 10 9 10 7 12 C4 12.3125 4 12.3125 1 12 C-1.69461986 7.95807022 -1.23200889 5.7948504 -1 1 C-0.67 0.67 -0.34 0.34 0 0 Z " fill="#EA228C" transform="translate(97,85)"/>
<path d="M0 0 C0.33 0 0.66 0 1 0 C1.02688151 1.64574566 1.04634123 3.29161413 1.0625 4.9375 C1.07410156 5.85402344 1.08570312 6.77054688 1.09765625 7.71484375 C1 10 1 10 0 11 C-1.68608966 11.07205511 -3.37500659 11.08386068 -5.0625 11.0625 C-5.98160156 11.05347656 -6.90070313 11.04445313 -7.84765625 11.03515625 C-8.55792969 11.02355469 -9.26820312 11.01195312 -10 11 C-7.542774 6.17655637 -6.01140556 3.43798108 -1 1 C-0.67 0.67 -0.34 0.34 0 0 Z " fill="#E90F83" transform="translate(117,2)"/>
<path d="M0 0 C0.99 0.66 1.98 1.32 3 2 C3.65318818 7.98755832 3.65318818 7.98755832 1.75 10.9375 C0 12 0 12 -4 12 C-4.49230769 4.61538462 -4.49230769 4.61538462 -2 1.5 C-1.34 1.005 -0.68 0.51 0 0 Z " fill="#FDF2F7" transform="translate(104,80)"/>
<path d="M0 0 C3.45073325 2.92986785 6.79810715 5.79810715 10 9 C10.33 6.03 10.66 3.06 11 0 C11.33 0 11.66 0 12 0 C12 4.62 12 9.24 12 14 C4.90178571 7.97321429 4.90178571 7.97321429 2 5 C1.67 7.64 1.34 10.28 1 13 C0.67 13 0.34 13 0 13 C0 8.71 0 4.42 0 0 Z " fill="#E91486" transform="translate(158,175)"/>
<path d="M0 0 C0.33 1.32 0.66 2.64 1 4 C-0.32 4.99 -1.64 5.98 -3 7 C-5.49361571 5.79618552 -7.68143083 4.54571278 -10 3 C-10 2.34 -10 1.68 -10 1 C-6.1496895 -1.56687367 -4.41430237 -0.83288724 0 0 Z " fill="#FDEFF6" transform="translate(116,77)"/>
<path d="M0 0 C2.60444348 -0.05394705 5.20776998 -0.09364469 7.8125 -0.125 C8.55048828 -0.14175781 9.28847656 -0.15851563 10.04882812 -0.17578125 C13.91246426 -0.21074628 15.70903668 -0.19397555 19 2 C18.01 2 17.02 2 16 2 C16 2.66 16 3.32 16 4 C12.04 4 8.08 4 4 4 C4 3.34 4 2.68 4 2 C2.68 1.34 1.36 0.68 0 0 Z " fill="#EC3694" transform="translate(89,70)"/>
<path d="M0 0 C3.96 0 7.92 0 12 0 C12 0.66 12 1.32 12 2 C10.35 2 8.7 2 7 2 C7.33 6.29 7.66 10.58 8 15 C6.68 14.67 5.36 14.34 4 14 C4.33 10.04 4.66 6.08 5 2 C3.35 2 1.7 2 0 2 C0 1.34 0 0.68 0 0 Z " fill="#EC3A97" transform="translate(110,174)"/>
<path d="M0 0 C0.78375 0.04125 1.5675 0.0825 2.375 0.125 C2.045 0.785 1.715 1.445 1.375 2.125 C0.385 2.125 -0.605 2.125 -1.625 2.125 C-0.60709345 4.39571461 0.14942829 5.93284632 2.0625 7.5625 C2.495625 8.078125 2.92875 8.59375 3.375 9.125 C2.95394737 13.54605263 2.95394737 13.54605263 1.375 15.125 C-0.62458364 15.16580783 -2.62545254 15.16754356 -4.625 15.125 C-4.295 14.465 -3.965 13.805 -3.625 13.125 C-2.305 13.125 -0.985 13.125 0.375 13.125 C0.375 11.805 0.375 10.485 0.375 9.125 C-0.264375 8.898125 -0.90375 8.67125 -1.5625 8.4375 C-3.625 7.125 -3.625 7.125 -4.5 4.625 C-4.54125 3.8 -4.5825 2.975 -4.625 2.125 C-2.625 0.125 -2.625 0.125 0 0 Z " fill="#EC3795" transform="translate(104.625,173.875)"/>
<path d="M0 0 C4.61998938 2.72999372 7.4930456 5.08251252 10 10 C10.25 13.875 10.25 13.875 10 17 C9.34 16.01 8.68 15.02 8 14 C7.34 14 6.68 14 6 14 C5.71125 13.071875 5.4225 12.14375 5.125 11.1875 C4.1125 7.90208333 4.1125 7.90208333 2 5 C1.01 4.67 0.02 4.34 -1 4 C-0.67 2.68 -0.34 1.36 0 0 Z " fill="#EC3B97" transform="translate(118,76)"/>
<path d="M0 0 C0.33 1.32 0.66 2.64 1 4 C-1.97 4 -4.94 4 -8 4 C-8.66 6.97 -9.32 9.94 -10 13 C-11.32 12.67 -12.64 12.34 -14 12 C-13.40975852 10.34912153 -12.80233994 8.70437593 -12.1875 7.0625 C-11.85105469 6.14597656 -11.51460938 5.22945312 -11.16796875 4.28515625 C-10 2 -10 2 -7 1 C-7 1.66 -7 2.32 -7 3 C-4.69 3 -2.38 3 0 3 C0 2.01 0 1.02 0 0 Z " fill="#E91686" transform="translate(135,211)"/>
<path d="M0 0 C0.66 0 1.32 0 2 0 C2.33 4.29 2.66 8.58 3 13 C1.35 13 -0.3 13 -2 13 C-1.85966889 11.02043559 -1.7125877 9.04134859 -1.5625 7.0625 C-1.48128906 5.96035156 -1.40007812 4.85820312 -1.31640625 3.72265625 C-1 1 -1 1 0 0 Z " fill="#E90E82" transform="translate(109,211)"/>
<path d="M0 0 C0.66 0 1.32 0 2 0 C2.33 1.32 2.66 2.64 3 4 C5.97 4.495 5.97 4.495 9 5 C9 5.99 9 6.98 9 8 C2.375 8.25 2.375 8.25 -1 6 C-1.25 3.4375 -1.25 3.4375 -1 1 C-0.67 0.67 -0.34 0.34 0 0 Z " fill="#EB2D91" transform="translate(61,153)"/>
<path d="M0 0 C1.60294922 0.01353516 1.60294922 0.01353516 3.23828125 0.02734375 C4.04652344 0.03894531 4.85476562 0.05054687 5.6875 0.0625 C4.6975 0.5575 4.6975 0.5575 3.6875 1.0625 C3.6875 1.7225 3.6875 2.3825 3.6875 3.0625 C1.75030622 3.11656122 -0.18731921 3.15532025 -2.125 3.1875 C-3.20394531 3.21070312 -4.28289062 3.23390625 -5.39453125 3.2578125 C-8.3125 3.0625 -8.3125 3.0625 -11.3125 1.0625 C-7.47525828 0.15836327 -3.93747726 -0.04326898 0 0 Z " fill="#E90A82" transform="translate(124.3125,70.9375)"/>
<path d="M0 0 C0.66 0.66 1.32 1.32 2 2 C-0.89792754 6.23543256 -2.95787766 7.9333972 -8 9 C-10.69228168 9.14093171 -13.29998623 9.09310392 -16 9 C-13.48910934 7.59390123 -11.39698917 6.85747017 -8.5625 6.1875 C-4.54380419 4.84793473 -2.74629427 3.16239946 0 0 Z " fill="#EC3795" transform="translate(92,216)"/>
<path d="M0 0 C0.66 0 1.32 0 2 0 C2.34933594 0.91523438 2.69867188 1.83046875 3.05859375 2.7734375 C3.51363281 3.96195313 3.96867187 5.15046875 4.4375 6.375 C4.88996094 7.55835938 5.34242187 8.74171875 5.80859375 9.9609375 C6.89271912 12.86036193 6.89271912 12.86036193 8 15 C6.68 15 5.36 15 4 15 C3.01 12.03 2.02 9.06 1 6 C0.34 6 -0.32 6 -1 6 C-0.67 4.02 -0.34 2.04 0 0 Z " fill="#EC3193" transform="translate(69,174)"/>
<path d="M0 0 C1.98 0 3.96 0 6 0 C6.33 1.32 6.66 2.64 7 4 C0.25 5.125 0.25 5.125 -2 4 C-1.34 2.68 -0.68 1.36 0 0 Z " fill="#FCE4EF" transform="translate(94,119)"/>
<path d="M0 0 C2.6855594 2.6855594 3.06049974 5.37621328 4 9 C1.69 9 -0.62 9 -3 9 C-2.01 6.03 -1.02 3.06 0 0 Z " fill="#FBDDEC" transform="translate(131,205)"/>
<path d="M0 0 C0.66 0.99 1.32 1.98 2 3 C1 4 1 4 -2.5625 4.0625 C-3.696875 4.041875 -4.83125 4.02125 -6 4 C-6.33 2.68 -6.66 1.36 -7 0 C-4.27584084 -1.36207958 -2.87220643 -0.86166193 0 0 Z " fill="#FCE8F2" transform="translate(129,120)"/>
<path d="M0 0 C2.375 0.625 2.375 0.625 5 2 C6.3125 5.125 6.3125 5.125 7 8 C5.35 8 3.7 8 2 8 C0.74335022 5.09399739 0 3.20395416 0 0 Z " fill="#EA1987" transform="translate(137,216)"/>
<path d="M0 0 C1.9375 0.75 1.9375 0.75 4 2 C4.33 3.32 4.66 4.64 5 6 C1.7 6 -1.6 6 -5 6 C-2.1709277 3.1709277 -1.61855575 2.62388892 2 2 C1.34 2 0.68 2 0 2 C0 1.34 0 0.68 0 0 Z " fill="#ED3E99" transform="translate(112,7)"/>
<path d="M0 0 C2.64 0 5.28 0 8 0 C7.2575 0.70125 6.515 1.4025 5.75 2.125 C3.02182777 4.97718006 1.08697046 7.6763063 -1 11 C-1.625 9.1875 -1.625 9.1875 -2 7 C-1.34 6.01 -0.68 5.02 0 4 C0 2.68 0 1.36 0 0 Z " fill="#EA258D" transform="translate(115,198)"/>
<path d="M0 0 C3.3 0 6.6 0 10 0 C8.68 1.65 7.36 3.3 6 5 C3.5625 4.1875 3.5625 4.1875 1 3 C0.67 2.01 0.34 1.02 0 0 Z " fill="#E91484" transform="translate(107,0)"/>
<path d="M0 0 C0.33 0 0.66 0 1 0 C1 2.31 1 4.62 1 7 C1.763125 7.103125 2.52625 7.20625 3.3125 7.3125 C6.18416484 8.04711194 7.23042094 8.6716065 9 11 C9 11.66 9 12.32 9 13 C5.125 11.25 5.125 11.25 4 9 C3.01 8.67 2.02 8.34 1 8 C1 9.65 1 11.3 1 13 C0.67 13 0.34 13 0 13 C0 8.71 0 4.42 0 0 Z " fill="#E91384" transform="translate(53,175)"/>
<path d="M0 0 C1.32 0.66 2.64 1.32 4 2 C3.75 3.875 3.75 3.875 3 6 C0.9375 7.25 0.9375 7.25 -1 8 C-1 7.34 -1 6.68 -1 6 C-2.32 5.67 -3.64 5.34 -5 5 C-3.35 5 -1.7 5 0 5 C0 3.35 0 1.7 0 0 Z " fill="#EC3394" transform="translate(159,154)"/>
<path d="M0 0 C0.66 0 1.32 0 2 0 C1.67 1.32 1.34 2.64 1 4 C-2.3 4 -5.6 4 -9 4 C-9.33 3.34 -9.66 2.68 -10 2 C-6.7 2 -3.4 2 0 2 C0 1.34 0 0.68 0 0 Z " fill="#EB298F" transform="translate(153,47)"/>
<path d="M0 0 C1.23556641 0.01740234 1.23556641 0.01740234 2.49609375 0.03515625 C3.32238281 0.04417969 4.14867188 0.05320312 5 0.0625 C5.63808594 0.07410156 6.27617188 0.08570312 6.93359375 0.09765625 C7.26359375 0.75765625 7.59359375 1.41765625 7.93359375 2.09765625 C4.96359375 2.09765625 1.99359375 2.09765625 -1.06640625 2.09765625 C-1.06640625 3.74765625 -1.06640625 5.39765625 -1.06640625 7.09765625 C-1.39640625 7.09765625 -1.72640625 7.09765625 -2.06640625 7.09765625 C-2.44773924 5.10625065 -2.77966207 3.10486548 -3.06640625 1.09765625 C-2.06640625 0.09765625 -2.06640625 0.09765625 0 0 Z " fill="#ED479D" transform="translate(109.06640625,27.90234375)"/>
<path d="M0 0 C1.98 0 3.96 0 6 0 C6 1.32 6 2.64 6 4 C4.02 4 2.04 4 0 4 C0 2.68 0 1.36 0 0 Z " fill="#EB2F91" transform="translate(109,15)"/>
<path d="M0 0 C0.33 0 0.66 0 1 0 C1 1.65 1 3.3 1 5 C-2.3 5 -5.6 5 -9 5 C-8.67 4.34 -8.34 3.68 -8 3 C-5.66666667 2.66666667 -3.33333333 2.33333333 -1 2 C-0.67 1.34 -0.34 0.68 0 0 Z " fill="#ED469C" transform="translate(165,219)"/>
<path d="M0 0 C1.27875 -0.061875 2.5575 -0.12375 3.875 -0.1875 C4.95394531 -0.23970703 4.95394531 -0.23970703 6.0546875 -0.29296875 C6.69664063 -0.19628906 7.33859375 -0.09960938 8 0 C8.66 0.99 9.32 1.98 10 3 C7.03 3 4.06 3 1 3 C0.67 2.01 0.34 1.02 0 0 Z " fill="#EC3794" transform="translate(121,124)"/>
<path d="M0 0 C0.37125 0.45375 0.7425 0.9075 1.125 1.375 C3.54264685 3.47029394 5.95430602 4.12013285 9 5 C9 5.33 9 5.66 9 6 C2.84765625 6.09765625 2.84765625 6.09765625 1 6 C0 5 0 5 -0.0625 2.4375 C-0.041875 1.633125 -0.02125 0.82875 0 0 Z " fill="#EC3796" transform="translate(170,219)"/>
<path d="M0 0 C6.75 -0.125 6.75 -0.125 9 1 C9 1.99 9 2.98 9 4 C5.85262818 3.30058404 2.97411124 2.23921302 0 1 C0 0.67 0 0.34 0 0 Z " fill="#E91185" transform="translate(123,117)"/>
<path d="M0 0 C2.31 0 4.62 0 7 0 C7 0.99 7 1.98 7 3 C4.69 3 2.38 3 0 3 C0 2.01 0 1.02 0 0 Z " fill="#E90C81" transform="translate(108,36)"/>
<path d="M0 0 C1.5 1.25 1.5 1.25 3 3 C3 4.32 3 5.64 3 7 C2.01 7 1.02 7 0 7 C-1.125 2.25 -1.125 2.25 0 0 Z " fill="#EA1886" transform="translate(103,200)"/>
<path d="M0 0 C0.99 0.33 1.98 0.66 3 1 C3 2.65 3 4.3 3 6 C2.01 6.33 1.02 6.66 0 7 C0 4.69 0 2.38 0 0 Z " fill="#FDEEF5" transform="translate(55,175)"/>
<path d="M0 0 C2.34058637 2.12780579 3.70700306 4.11562221 5 7 C3.68 7 2.36 7 1 7 C0.67 4.69 0.34 2.38 0 0 Z " fill="#EB268E" transform="translate(150,182)"/>
<path d="M0 0 C0.66 0 1.32 0 2 0 C2.33 2.31 2.66 4.62 3 7 C1.68 6.67 0.36 6.34 -1 6 C-0.67 4.02 -0.34 2.04 0 0 Z " fill="#EB2E91" transform="translate(147,174)"/>
<path d="M0 0 C1.98 0 3.96 0 6 0 C6 1.32 6 2.64 6 4 C5.01 4.33 4.02 4.66 3 5 C2.67 4.01 2.34 3.02 2 2 C1.34 2 0.68 2 0 2 C0 1.34 0 0.68 0 0 Z " fill="#E91184" transform="translate(105,72)"/>
<path d="M0 0 C1.9375 0.3125 1.9375 0.3125 4 1 C4.33 1.99 4.66 2.98 5 4 C4.01 4.495 4.01 4.495 3 5 C2.01 4.67 1.02 4.34 0 4 C0 2.68 0 1.36 0 0 Z " fill="#EC3E98" transform="translate(75,53)"/>
</svg>
